<svg xmlns="http://www.w3.org/2000/svg" version="1.0" width="1em" height="1em" viewBox="0 0 783.000000 876.000000" preserveAspectRatio="xMidYMid meet">
    <g transform="translate(0.000000,876.000000) scale(0.100000,-0.100000)" fill="#000000" stroke="none">
    <path d="M3742 8180 c-464 -45 -892 -218 -1254 -506 -267 -214 -516 -539 -656 -859 -207 -474 -253 -1012 -127 -1500 88 -344 275 -704 485 -935 l50 -55 -7 1012 -6 1012 24 6 c13 3 96 4 184 3 l160 -3 6 -680 c4 -471 9 -700 18 -744 29 -153 79 -206 204 -218 75 -6 124 6 197 49 136 82 267 339 315 618 8 52 18 106 22 120 3 14 8 212 12 440 l6 415 185 0 185 0 5 -745 c5 -684 7 -749 23 -790 35 -88 97 -125 171 -100 75 25 113 109 123 273 6 94 7 98 31 104 44 11 57 -7 60 -87 4 -93 -20 -220 -55 -288 -38 -74 -116 -144 -188 -166 -87 -28 -213 -19 -283 19 -138 75 -215 239 -238 503 -4 46 -10 80 -14 75 -4 -4 -22 -51 -39 -103 -82 -239 -194 -387 -350 -462 -80 -39 -92 -42 -191 -46 -81 -3 -121 0 -165 13 -136 39 -242 147 -290 293 -11 36 -21 50 -27 44 -14 -14 7 -225 32 -331 39 -161 168 -496 203 -524 181 -144 486 -297 737 -370 120 -35 122 -35 250 -58 276 -48 538 -47 812 1 531 93 1014 375 1370 800 474 565 645 1357 447 2075 -32 117 -46 150 -56 127 -15 -37 -69 -83 -121 -103 -65 -24 -177 -29 -352 -16 l-105 8 53 -35 c182 -121 294 -284 333 -486 16 -86 16 -277 0 -365 -60 -315 -290 -572 -610 -682 -233 -79 -545 -84 -776 -13 -287 90 -519 318 -604 593 -55 180 -50 427 14 613 94 273 312 483 600 578 176 58 338 67 810 41 342 -18 492 -19 579 0 80 17 116 37 116 66 0 27 -98 212 -177 333 -355 544 -945 922 -1588 1017 -153 22 -412 31 -543 19z"/>
    <path d="M4695 6612 c-90 -27 -143 -59 -206 -121 -139 -139 -204 -391 -179 -692 16 -201 60 -351 144 -493 154 -260 405 -364 700 -289 177 44 295 171 352 378 24 89 30 390 10 520 -52 344 -208 588 -436 682 -57 23 -81 27 -195 30 -103 2 -142 -1 -190 -15z"/>
    <path d="M4063 3033 c-16 -6 -17 -99 -2 -109 6 -4 32 -7 58 -8 l46 -1 0 60 0 60 -45 1 c-25 1 -51 0 -57 -3z"/>
    <path d="M3574 2990 c-115 -46 -163 -142 -137 -271 10 -51 84 -117 185 -166 97 -47 150 -89 168 -133 25 -59 -10 -128 -83 -167 -41 -21 -136 -21 -200 2 -27 9 -51 14 -54 11 -3 -3 -8 -26 -10 -50 l-5 -45 58 -17 c70 -20 219 -15 275 10 96 41 142 113 142 221 0 124 -48 183 -219 268 -50 25 -103 60 -118 77 -56 68 -21 154 74 180 41 11 75 8 181 -16 22 -5 27 -2 32 18 21 75 1 89 -137 94 -84 4 -109 1 -152 -16z"/>
    <path d="M1347 2993 c-4 -3 -7 -195 -7 -425 l0 -419 53 3 52 3 3 358 c1 196 6 357 11 357 12 0 27 -21 35 -50 10 -34 181 -486 242 -638 13 -32 14 -33 70 -30 l56 3 69 180 c94 243 158 411 176 465 16 48 33 74 41 65 3 -2 5 -163 6 -357 l1 -353 55 0 55 0 0 420 0 420 -92 3 c-80 2 -93 0 -101 -15 -8 -14 -224 -592 -247 -660 -12 -34 -35 -7 -65 75 -44 121 -208 552 -220 580 -9 20 -16 22 -98 22 -49 0 -92 -3 -95 -7z"/>
    <path d="M4484 2766 c-169 -74 -231 -359 -111 -518 81 -109 250 -129 362 -44 53 41 58 36 53 -45 -6 -81 -38 -138 -98 -174 -49 -28 -173 -26 -253 5 -32 12 -61 19 -64 16 -4 -3 -7 -25 -7 -47 -1 -40 1 -42 39 -56 55 -20 217 -28 285 -14 69 15 142 67 172 123 23 42 23 51 26 401 l3 357 -46 0 -45 0 0 -40 c0 -47 -8 -49 -41 -14 -39 43 -95 64 -174 63 -38 0 -84 -6 -101 -13z m192 -86 c91 -45 137 -181 103 -305 -15 -52 -82 -120 -134 -134 -144 -38 -261 129 -211 302 26 91 96 157 165 157 19 0 54 -9 77 -20z"/>
    <path d="M5265 2761 c-22 -10 -51 -30 -64 -45 -33 -35 -39 -33 -43 12 -3 37 -3 37 -48 37 l-45 0 0 -305 0 -305 50 0 50 0 5 200 c5 184 7 204 28 247 29 58 70 89 127 96 38 4 47 1 79 -29 48 -45 57 -100 55 -334 l-2 -180 51 -3 52 -3 0 178 c1 197 9 252 47 301 68 90 164 96 216 13 21 -34 22 -50 27 -261 l5 -225 48 -3 47 -3 0 239 0 238 -27 54 c-36 69 -89 100 -172 100 -68 0 -124 -24 -170 -74 l-34 -36 -36 42 c-19 22 -50 47 -68 54 -46 20 -130 17 -178 -5z"/>
    <path d="M6253 2770 c-17 -4 -46 -16 -65 -27 -27 -15 -34 -26 -36 -56 -4 -43 0 -44 52 -17 84 43 196 38 244 -10 30 -30 55 -99 43 -119 -4 -7 -50 -13 -112 -14 -200 -7 -299 -75 -299 -208 0 -63 27 -115 78 -148 29 -19 54 -26 113 -29 89 -5 136 8 185 50 38 33 56 30 52 -10 -3 -26 -1 -27 42 -27 l45 0 3 214 c2 176 0 223 -14 263 -34 104 -102 148 -224 147 -41 -1 -89 -4 -107 -9z m236 -337 c13 -25 -2 -109 -26 -140 -34 -47 -69 -66 -127 -71 -44 -3 -62 0 -89 17 -60 37 -74 100 -32 149 34 41 94 60 187 61 64 1 79 -2 87 -16z"/>
    <path d="M2457 2764 c-13 -14 -8 -415 7 -469 27 -102 78 -145 183 -152 91 -7 145 9 199 59 47 43 56 40 51 -17 -2 -30 -1 -30 48 -30 41 0 50 3 49 18 0 9 -1 148 -2 308 l-2 290 -47 -3 -48 -3 -5 -195 -5 -195 -31 -55 c-70 -123 -225 -134 -278 -20 -6 15 -13 112 -16 245 l-5 220 -45 3 c-25 2 -49 0 -53 -4z"/>
    <path d="M4065 2758 c-3 -7 -4 -146 -3 -308 l3 -295 50 0 50 0 0 305 0 305 -48 3 c-32 2 -49 -1 -52 -10z"/>
    <path d="M2045 1389 c-22 -12 -48 -28 -58 -37 -83 -74 -104 -262 -41 -370 35 -59 122 -114 190 -120 91 -8 191 55 236 146 29 59 31 195 5 254 -24 54 -76 108 -122 129 -57 26 -158 25 -210 -2z m168 -45 c53 -27 87 -66 102 -118 18 -59 19 -88 4 -156 -35 -163 -231 -198 -314 -56 -21 36 -25 56 -25 120 0 115 29 172 105 207 50 23 87 24 128 3z"/>
    <path d="M1370 1394 c0 -23 -1 -491 0 -501 0 -17 203 -18 267 -1 63 15 117 71 137 139 31 103 13 236 -40 299 -47 55 -76 64 -226 68 -76 2 -138 0 -138 -4z m269 -72 c22 -10 44 -34 59 -62 20 -39 23 -56 20 -125 -6 -151 -54 -197 -198 -193 l-85 3 -3 185 c-1 101 0 190 2 197 8 21 163 17 205 -5z"/>
    <path d="M2706 1384 c-12 -31 13 -43 92 -46 l77 -3 5 -225 5 -225 30 0 30 0 3 228 2 227 73 0 c80 0 101 8 95 36 -3 18 -17 19 -204 22 -180 2 -202 1 -208 -14z"/>
    <path d="M3226 1384 c-3 -9 -6 -118 -6 -244 0 -126 3 -235 6 -244 4 -10 18 -16 35 -16 l29 0 0 119 c0 99 3 120 16 125 23 9 227 7 241 -2 8 -5 13 -46 15 -122 l3 -115 30 0 30 0 0 255 0 255 -30 0 -30 0 -3 -102 c-1 -57 -6 -103 -10 -103 -17 -1 -238 -2 -249 -1 -10 1 -13 29 -13 106 l0 105 -29 0 c-17 0 -31 -6 -35 -16z"/>
    <path d="M3785 1388 c-3 -8 -4 -124 -3 -258 l3 -245 190 0 190 0 0 25 0 25 -155 5 -155 5 -3 84 c-2 61 1 87 10 92 7 5 71 9 141 9 105 0 129 3 133 15 4 8 0 23 -7 31 -12 14 -32 16 -136 12 -92 -4 -126 -2 -134 8 -5 7 -9 41 -7 76 l3 63 150 5 150 5 0 25 0 25 -183 3 c-142 2 -184 0 -187 -10z"/>
    <path d="M4535 1387 c-3 -7 -4 -123 -3 -257 l3 -245 28 -3 c17 -2 27 1 28 10 0 7 0 102 -1 211 -1 118 3 197 8 197 6 0 41 -93 78 -207 l69 -208 30 0 30 0 69 208 c38 116 72 205 77 200 5 -5 10 -98 11 -208 l3 -200 28 -3 27 -3 0 260 0 261 -44 0 c-24 0 -48 -6 -54 -12 -5 -7 -38 -98 -72 -203 -61 -189 -75 -222 -84 -194 -57 186 -122 387 -129 397 -12 16 -96 16 -102 -1z"/>
    <path d="M5306 1391 c-3 -5 -28 -67 -55 -137 -27 -71 -70 -180 -95 -243 -25 -63 -43 -118 -40 -123 8 -12 50 -10 62 5 6 7 21 41 35 77 l24 65 108 0 107 0 27 -65 c14 -36 30 -71 34 -78 10 -15 67 -16 67 0 0 10 -59 161 -155 393 -21 50 -42 96 -47 103 -12 14 -64 16 -72 3z m77 -164 c48 -138 52 -127 -42 -127 -44 0 -81 4 -81 8 0 5 9 26 19 48 10 21 27 65 36 97 9 31 22 57 28 57 7 0 25 -38 40 -83z"/>
    <path d="M5644 1385 c-14 -36 3 -45 85 -45 l81 0 2 -227 3 -228 32 -3 33 -3 2 228 3 228 80 5 c77 5 80 6 80 30 l0 25 -198 3 c-169 2 -198 0 -203 -13z"/>
    <path d="M6165 1388 c-3 -7 -4 -124 -3 -258 l3 -245 30 0 30 0 5 120 5 120 119 3 c82 2 123 -1 133 -10 11 -9 14 -34 12 -113 -1 -56 1 -107 5 -113 9 -14 56 -16 56 -2 0 6 1 118 1 250 0 132 -1 245 -1 250 0 15 -60 12 -61 -2 -1 -7 0 -52 1 -99 1 -61 -2 -89 -11 -95 -7 -4 -67 -7 -133 -7 l-121 -1 -5 105 -5 104 -28 3 c-16 2 -29 -2 -32 -10z"/>
    </g>
</svg>