<svg xmlns="http://www.w3.org/2000/svg" xmlns:xlink="http://www.w3.org/1999/xlink" version="1.0" id="katman_1" x="0px" y="0px" viewBox="0 0 560 400" style="enable-background:new 0 0 560 400;" xml:space="preserve">
<style type="text/css">
	.st0{fill:#E669A2;}
	.st1{fill:#F3BE26;}
	.st2{fill:#EE9C34;}
	.st3{fill:#F3BC87;}
	.st4{fill:#E3721C;}
	.st5{fill:#AD1B02;}
	.st6{fill:#E88D14;}
	.st7{fill:#D85604;}
	.st8{fill:#C14303;}
	.st9{fill:#DB4E18;}
	.st10{fill:#D1390D;}
	.st11{fill:#C22303;}
</style>
<g>
	<g>
		<path class="st0" d="M331.2,144.8H468v35H331.2V144.8z"/>
		<path class="st1" d="M331.2,92.3h119v87.6h-119V92.3z"/>
		<path class="st2" d="M331.2,57.3h69.8v122.5h-69.8V57.3z"/>
		<path class="st3" d="M331.2,71h83.6v108.9h-83.6V71z"/>
		<path class="st4" d="M331.2,71h69.8v108.8h-69.8V71z"/>
		<path class="st5" d="M261.2,179.8h70v17.5h-70V179.8z"/>
		<path class="st6" d="M331.2,92.3h83.6v87.6h-83.6V92.3z"/>
		<path class="st7" d="M331.2,92.3h69.8v87.6h-69.8V92.3z"/>
		<path class="st8" d="M331.2,127.3h43.7v52.6h-43.7V127.3z"/>
		<path class="st9" d="M331.2,144.9h119.1v35H331.2V144.9z"/>
		<path class="st10" d="M331.2,144.9h83.6v35h-83.6V144.9z"/>
		<path class="st11" d="M331.2,144.9h69.8v35h-69.8V144.9z"/>
		<path class="st5" d="M331.2,144.9H375v35h-43.7V144.9z"/>
	</g>
	<g transform="matrix(.263506 0 0 .263506 114.386742506 185.321134752)">
		<path d="M880.7,229.4c-45.2,8-69.3,42.2-69.3,101.5c0,60.3,32.2,100.5,79.4,100.5c23.1,0,43.2-8,85.4-29.1v49.2    c-51.2,24.1-81.4,30.1-121.6,30.1c-45.2,0-77.4-11.1-102.5-38.2c-26.1-26.1-40.2-60.3-40.2-99.5c0-85.4,64.3-144.7,157.8-144.7    c61.3,0,104.5,29.1,104.5,70.3c0,27.1-20.1,46.2-49.2,46.2c-15.1,0-27.1-5-44.2-14.1"/>
		<path d="M654.6,344c41.2-51.2,56.3-72.4,56.3-97.5c0-25.1-20.1-47.2-48.2-47.2c-16.1,0-31.2,9-38.2,17.1v105.5l-67.3,90.4v-205    h-64.3L386.3,383.2V207.3h-36.2l-97.5,22.1v25.1l53.3,5v218.1h67.3l102.5-168.8v168.8h75.4"/>
		<path d="M48.7,443.5h15.1c54.3,0,84.4-33.2,84.4-99.5c0-55.3-24.1-85.4-69.3-85.4c-6,0-15.1,1-30.1,4V443.5z M48.7,562l44.2,10    v25.1H-80.9v-25.1l40.2-10V258.6H-85v-25.1l105.5-32.2h28.1v36.2c49.2-30.1,66.3-35.2,92.4-35.2c58.3,0,102.5,54.3,102.5,129.6    c0,86.4-59.3,145.7-149.7,145.7c-10,0-27.1-1-45.2-2"/>
	</g>
</g>
</svg>