<svg xmlns="http://www.w3.org/2000/svg" xmlns:xlink="http://www.w3.org/1999/xlink" version="1.1" id="Ñëîé_1" x="0px" y="0px" viewBox="0 0 512 512" style="enable-background:new 0 0 512 512;" xml:space="preserve">
<style type="text/css">
	.st0{fill:#656262;}
	.st1{fill:#E51635;}
</style>
<g id="XMLID_1_">
	<path id="path14" class="st0" d="M62.17,185.29H0.02v14.51h22.61v47.79h16.78v-47.79h22.61v-14.51H62.17z"/>
	<g id="g18">
		<g id="g24" transform="translate(264.0283,113.707)">
			<path id="path26" class="st1" d="M-32.86,177.12c0-5.4-4.41-9.81-9.96-9.81h-0.14h-21.76c-1.85,0-2.84,1-3.84,2.42l-6.54,9.39     h21.05c2.42,0.14,4.41,2.13,4.41,4.69v29.16H-33v-35.84H-32.86"/>
		</g>
		<path id="path28" class="st1" d="M172.39,264.36h16.64v62.29h-16.64V264.36z"/>
		<g id="g30" transform="translate(346.2676,123.1367)">
			<path id="path32" class="st1" d="M-29.42,157.92h-47.22v45.65h16.78v-33.85h19.06c2.56,0,4.69,2.13,4.69,4.69v29.16h16.64v-35.84     C-19.47,162.33-23.88,157.92-29.42,157.92"/>
		</g>
		<g id="g34" transform="translate(119.0557,139.0889)">
			<path id="path36" class="st1" d="M-39.17,125.26h-79.93v62.29h16.64v-47.79h17.78c1.71,0,2.99,1.42,2.99,3.13v44.66h16.64v-44.66     c0-1.71,1.42-3.13,3.13-3.13l0,0h13.08c2.56,0,4.55,1.99,4.55,4.55v43.24h16.64v-50.92C-27.65,130.38-32.77,125.26-39.17,125.26"/>
		</g>
		<g id="g38" transform="translate(274.5376,108.9092)">
			<path id="path40" class="st1" d="M-32.4,186.9v30.86h16.64v-27.59v-17.64c0,0-7.68,4.84-13.08,8.25     C-31.12,182.2-32.4,184.48-32.4,186.9"/>
		</g>
		<g id="g42" transform="translate(274.5376,139.1416)">
			<path id="path44" class="st1" d="M-32.4,125.14h16.64v11.52l-16.64,10.95V125.14z"/>
		</g>
		<g id="g46" transform="translate(441.0674,123.1367)">
			<path id="path48" class="st1" d="M-25.38,157.92c-4.12,0-6.83,3.27-6.83,6.68v39.11h16.78v-29.16c0-2.56,1.85-4.84,4.55-4.84H1.5     c1.85-0.14,3.27-1.14,4.27-2.56l6.54-9.24H-25.38z"/>
		</g>
		<g id="g50" transform="translate(407.9766,139.0889)">
			<path id="path52" class="st1" d="M-26.69,125.26v16.64v34.28h-24.18c-1.71,0-2.84-1.42-2.84-2.7V158.4l0,0     c0-2.56,2.13-4.69,4.69-4.69h12.23c1.85,0,3.7-1.14,4.41-2.28l5.69-9.53h-33.85c-5.4,0-9.81,4.41-9.81,9.81v0.14v27.59     c0,5.26,4.27,8.25,8.11,8.25h52.34V125.4h-16.78V125.26z"/>
		</g>
		<g id="g54" transform="translate(523.9531,123.1367)">
			<path id="path56" class="st1" d="M-21.81,157.92h-38.4c-1.85,0-3.7,0.85-4.69,2.42l-6.4,9.53h38.68     c2.42,0.14,4.41,2.13,4.41,4.69v18.2h-29.01v-5.26c0-1,0.85-1.85,1.85-1.85h20.34v-6.68c0-1.56-1-2.56-2.42-2.56h-28.16     c-3.41,0-6.26,2.7-6.26,6.12v16.64c0,0.14,0,0.14,0,0.28c0.43,2.42,2.56,4.27,5.12,4.27H-12v-35.84     C-12,162.33-16.27,157.92-21.81,157.92"/>
		</g>
		<g id="g58" transform="translate(188.3081,123.1367)">
			<path id="path60" class="st1" d="M-36.1,157.92h-38.4c-1.85,0-3.7,0.85-4.69,2.42l-6.54,9.53h38.68     c2.42,0.14,4.41,2.13,4.41,4.69v18.2h-29.01v-5.26c0-1,0.85-1.85,1.85-1.85h20.34v-6.68c0-1.56-1-2.56-2.42-2.56h-28.16     c-3.41,0-6.26,2.7-6.26,6.12v16.64c0,0.14,0,0.14,0,0.28c0.43,2.42,2.56,4.27,5.12,4.27h54.9v-35.84     C-26.29,162.33-30.7,157.92-36.1,157.92"/>
		</g>
		<g id="g62" transform="translate(290.4902,188.8735)">
			<path id="path64" class="st0" d="M-31.78,23.54c0-5.4-4.41-9.81-9.96-9.81h-0.14h-22.33c-1.85,0-2.84,1-3.84,2.42l-6.54,9.39     h21.62c2.42,0.14,4.41,2.13,4.41,4.69v29.16h16.64V23.54H-31.78z M-91.09-2.91h16.64v62.29h-16.64V-2.91z"/>
		</g>
		<g id="g66" transform="translate(189.2935,170.334)">
			<path id="path68" class="st0" d="M-36.11,61.51L-36.11,61.51c0,2.56,2.13,4.69,4.69,4.69h31.15v11.8h-42.67     c-5.4,0-9.81-4.41-9.81-9.81v-0.14V34.34v6.97c0-5.4,4.41-9.81,9.81-9.81h42.67l-2.56,6.54c-0.57,1.42-0.85,2.56-2.13,3.41     c-0.85,0.57-1.71,1.14-2.84,1.14h-23.61c-2.56,0-4.69,2.13-4.69,4.69l0,0V61.51"/>
		</g>
		<g id="g70" transform="translate(117.7144,155.0386)">
			<path id="path72" class="st0" d="M-39.17,92.74h35.56c1.85,0,3.7-0.85,4.69-2.42l6.54-9.53h-35.84     c-2.42-0.14-4.41-2.13-4.41-4.69V58.04h26.17v5.26c0,1-0.85,1.85-1.85,1.85H-25.8v6.68c0,1.56,1,2.56,2.42,2.56H1.93     c3.41,0,6.26-2.7,6.26-6.12V51.64c0-0.14,0-0.14,0-0.28c-0.43-2.42-2.56-4.27-5.12-4.27h-45.94h-6.12v5.83v30.01     C-48.98,88.33-44.57,92.74-39.17,92.74"/>
		</g>
	</g>
</g>
</svg>